# xmcd CD database file
#
# Track frame offsets:
#	150
#	16763
#	36440
#	51343
#	72243
#	102910
#	126605
#	138510
#	161148
#	176153
#
# Disc length: 2558 seconds
#
# Revision: 7
# Processed by: cddbd v1.5.2PL0 Copyright (c) Steve Scherf et al.
# Submitted via: CDex 1.79
#
DISCID=9509fc0a
DTITLE=Iris DeMent - My Life
DYEAR=1994
DGENRE=Country
TTITLE0=Sweet Is The Melody
TTITLE1=You've Done Nothing Wrong
TTITLE2=Calling For You
TTITLE3=Childhood Memories
TTITLE4=No Time To Cry
TTITLE5=Troublesome Waters
TTITLE6=Mom and Dad's Waltz
TTITLE7=Easy's Gettin' Harder Every Day
TTITLE8=The Shores Of Jordan
TTITLE9=My Life
EXTD=YEAR: 1994
EXTT0=
EXTT1=
EXTT2=
EXTT3=
EXTT4=
EXTT5=
EXTT6=
EXTT7=
EXTT8=
EXTT9=
PLAYORDER=
